<svg xmlns="http://www.w3.org/2000/svg" height="56" width="56" style=""><rect id="backgroundrect" width="100%" height="100%" x="0" y="0" fill="none" stroke="none"/><g class="currentLayer" style=""><title>Layer 1</title><g class=""><path id="Shape" d="m37.30672264099121,-36.386553049087524 c-0.8284271,0 -1.5,0.6715729 -1.5,1.5 s0.6715729,1.5 1.5,1.5 h4 c0.8284271,0 1.5,-0.6715729 1.5,-1.5 s-0.6715729,-1.5 -1.5,-1.5 z" fill="#14133a" class=""/><path id="Shape" d="m37.79772264099121,-43.377553049087524 l9.509,-0.009000000000000011 c0.5358984000000004,0 1.031089,-0.2858984000000002 1.2990382,-0.7500000000000004 s0.2679492,-1.0358984 0,-1.5 s-0.7631398000000007,-0.7500000000000004 -1.2990382,-0.7500000000000004 h-9.5 z" fill="#14133a" class=""/><path id="Shape" d="m45.37172264099121,-48.82355304908752 c0.2780764000000002,-0.2783502000000002 0.4329615000000002,-0.6565581 0.4300000000000002,-1.05 c0.0011131000000000012,-0.8321681 -0.6708428000000007,-1.5085948 -1.5030000000000001,-1.513 h-6.492 v3.000028 l6.5,-0.00002800000000000004 c0.3991212000000003,0.002441100000000003 0.7826252000000006,-0.1549216000000001 1.065,-0.4370000000000002 z" fill="#14133a" class=""/><path id="Shape" d="m44.31272264099121,-38.386553049087524 c0.3959352000000002,0.0018642000000000012 0.7762648,-0.1542529000000001 1.0567052,-0.4337548000000002 c0.2804405000000002,-0.2795019 0.4378317000000002,-0.6593060000000004 0.4372948000000002,-1.0552452 c0.004444500000000001,-0.4014696000000002 -0.15224230000000022,-0.7879636999999996 -0.4350000000000002,-1.073 c-0.28347680000000036,-0.2793518000000002 -0.6670474000000007,-0.4335004000000003 -1.065,-0.4280000000000002 h-6.78 c-0.329137,0.5913083 -0.9464628999999996,0.9644424 -1.6230000000000002,0.981 c-0.06332750000000002,0.16445940000000026 -0.09717840000000011,0.3387919000000002 -0.1,0.515 c-0.004080400000000004,0.3951272000000003 0.1508729,0.7753032999999996 0.4300000000000002,1.055 c0.2843772000000002,0.2842235 0.6709529000000004,0.4423844000000005 1.073,0.4390000000000002 h7.007 z" fill="#14133a" class=""/><path id="Shape" d="m24.60672264099121,-35.80555304908752 c1.7147650300000001,1.623239 4.0069827,2.4941161000000003 6.367,2.419 h3.182 c-0.6589894000000007,-1.3450723 -0.3736377,-2.9617954 0.7060000000000004,-4 c-0.013000000000000012,-0.012000000000000007 -0.028000000000000014,-0.021000000000000015 -0.04100000000000003,-0.03300000000000003 c-0.6540220000000004,-0.6538346000000007 -1.0191712,-1.5422202 -1.014,-2.467 c0.0014593000000000017,-0.20899000000000015 0.021201300000000027,-0.4174515000000002 0.05900000000000004,-0.6230000000000004 c-1.7909497,-0.43347970000000036 -3.054051,-2.034344 -3.059,-3.8770000000000002 v-6 c0,-0.5522847 0.4477153000000002,-1 1,-1 s1,0.4477153000000002 1,1 v6 c0,1.1045695 0.8954305,2 2,2 h1 v-10.991 c0.002401100000000002,-0.5330320999999996 -0.2080772000000001,-1.0449696 -0.5847098000000007,-1.4221655 c-0.3766327000000002,-0.3771960000000002 -0.8882551000000004,-0.588439 -1.4212902,-0.5868345 l-1.9889999999999999,0.010000000000000007 c-3.039,-0.010000000000000007 -3.83,0.4480000000000003 -6.813,4.075 c-1.09008353,1.1662197 -2.5967908,1.8545175 -4.192,1.915 h-3 c-0.55228475,0 -1,0.4477153000000002 -1,1 v10 c0,0.5522847 0.44771525,1 1,1 h3 c1.42405903,0.012827000000000007 2.78710398,0.5799254000000007 3.8,1.581 z" fill="#14133a" class=""/><path id="Shape" d="m71.80672264099121,-26.386553049087524 h-3 c-1.5955089,-0.06043740000000003 -3.1025441,-0.7487208000000007 -4.193,-1.915 c-2.987,-3.632 -3.753,-4.112 -6.8,-4.084 l-2.007,-0.007000000000000008 c-0.5314742,-0.000002400000000000003 -1.0410934,0.2115347000000001 -1.4163391,0.5879062 c-0.3752457,0.37637140000000036 -0.5852553,0.8866220000000006 -0.5836609,1.4180938 l0.007000000000000008,10.991 l1,0.005000000000000004 c1.1050447,-0.008223000000000006 1.9972884999999998,-0.9049280000000004 2,-2.01 v-5.992 c0,-0.5522847 0.4477153000000002,-1 1,-1 s1,0.4477153000000002 1,1 v6 c-0.010989400000000007,1.8439388 -1.2747824,3.4440838 -3.066,3.882 c0.03783140000000003,0.2058807 0.05757340000000004,0.4146772 0.05900000000000004,0.6240000000000004 c0.0058360000000000035,0.9239294000000005 -0.3586373,1.811703 -1.012,2.465 c-0.013000000000000012,0.013000000000000012 -0.028000000000000014,0.021000000000000015 -0.04100000000000003,0.03400000000000003 c1.0799791,1.0379641 1.3657402,2.6547173 0.7070000000000004,4 h3.18 h0.023000000000000027 c2.3498527,0.07575300000000006 4.6319,-0.7941987 6.335,-2.415 c1.0158209,-1.0019487 2.3812571,-1.5699243 3.808,-1.584 h3 c0.5522847,0 1,-0.4477153000000002 1,-1 v-10 c0,-0.5522847 -0.4477153000000002,-1 -1,-1 z" fill="#14133a" class=""/><path id="Shape" d="m51.80672264099121,-23.386553049087524 h-9.5 c-0.8284271,-0.0019330000000000026 -1.5015669999999992,0.6680729000000004 -1.5034999999999998,1.4965000000000002 s0.6680729000000004,1.5015669999999992 1.4965000000000002,1.5034999999999998 h9.512 z" fill="#14133a" class=""/><path id="Shape" d="m44.466386556625366,-25.386553049087524 h6.5 v-3.006 l-6.491,0.00600000000000001 c-0.8259328,0.0059912000000000055 -1.4940088,0.6740672000000005 -1.5,1.5 c-0.004080400000000006,0.39512720000000034 0.1508729,0.7753032999999995 0.43000000000000027,1.055 c0.28045830000000027,0.28346470000000035 0.6622431000000005,0.4435912 1.061,0.44500000000000034 z" fill="#14133a" class=""/><path id="Shape" d="m53.37472264099121,-15.831553049087525 c0.2780764000000002,-0.2783502000000002 0.4329615000000002,-0.6565581 0.4300000000000002,-1.05 c-0.002631200000000004,-0.1788257 -0.03647300000000001,-0.35581790000000035 -0.1,-0.523 c-0.6755923,-0.016296400000000013 -1.2916838,-0.3902160000000003 -1.618,-0.982 h-6.78 c-0.6049695,0.0017349000000000032 -1.1496812,0.3667177000000002 -1.3813536000000002,0.9255728 s-0.1049525,1.2021788 0.32135360000000035,1.6314272 c0.27874519999999997,0.2851452 0.6612486000000007,0.44500280000000036 1.06,0.4430000000000002 h7 c0.4011846000000002,0.00045700000000000065 0.7858336,-0.15981340000000022 1.068,-0.4450000000000003 z" fill="#14133a" class=""/><path id="Shape" d="m52.30672264099121,-13.386553049087524 h-4 c-0.8284271,0 -1.5,0.6715729 -1.5,1.5 s0.6715729,1.5 1.5,1.5 h4 c0.8284271,0 1.5,-0.6715729 1.5,-1.5 s-0.6715729,-1.5 -1.5,-1.5 z" fill="#14133a" class=""/><path id="Shape" d="m36.03872264099121,-17.650553049087527 c-0.1772461000000002,-0.5044976 -0.7200142,-0.7802872999999996 -1.232,-0.6260000000000004 l-3.7590000000000003,1.141 l0.05200000000000004,-3.927 c0.007218700000000006,-0.5364928 -0.4102389,-0.9830753 -0.9460000000000004,-1.012 l-3.926,-0.2120000000000001 l1.387,-3.6750000000000007 c0.1898000000000001,-0.5018392 -0.050258100000000056,-1.0640342 -0.544,-1.274 l-4.872,-2.071 c-0.50810197,-0.21649560000000018 -1.09550438,0.019898000000000013 -1.312,0.528 s0.019898030000000014,1.0955044 0.528,1.312 l3.99,1.7000000000000002 l-1.53,4.056 c-0.11273544000000012,0.2983889000000005 -0.07635776,0.6326578000000007 0.09792431000000011,0.8998112000000007 c0.17428206000000004,0.2671535 0.4655566000000002,0.4351361 0.7840756900000004,0.4521888000000002 l4.328,0.233 l-0.05600000000000003,4.334 c-0.004145400000000004,0.31887180000000037 0.14404300000000014,0.6205996000000007 0.3989246000000005,0.8122549 c0.2548817000000002,0.1916552000000001 0.5858890000000004,0.2502527 0.8910754000000007,0.15774510000000025 l4.15,-1.26 l1.4380000000000002,4.089 c0.18280630000000014,0.5213568 0.7536432000000007,0.7958062 1.275,0.6130000000000004 c0.5213568,-0.18280630000000014 0.7958062,-0.7536432000000007 0.6130000000000004,-1.275 z" fill="#14133a" class=""/><path id="Shape" d="m59.25072264099121,-51.52455304908752 c0.020382900000000027,-0.319139 -0.1130963000000001,-0.6287782000000007 -0.3591215000000002,-0.8330740000000004 c-0.2460251000000001,-0.2042958000000001 -0.5749192000000004,-0.2786048000000002 -0.8848785000000005,-0.19992600000000021 l-4.2,1.053 l-1.038,-3.5060000000000002 c-0.15684890000000018,-0.5296411000000004 -0.7133589,-0.8318488000000007 -1.243,-0.6750000000000007 c-0.5296410000000007,0.15684890000000018 -0.8318488000000007,0.7133589 -0.6750000000000007,1.243 l1.31,4.424 c0.1517290000000001,0.513208 0.6806109000000006,0.8159929 1.2,0.6870000000000007 l3.81,-0.9540000000000004 l-0.2460000000000001,3.92 c-0.03382890000000003,0.5374757 0.3640544000000002,1.0052096 0.9,1.058 l3.908,0.405 l-1.5670000000000002,3.6 c-0.2147145000000001,0.4921922 -0.002369100000000001,1.0660988 0.4810000000000002,1.3 l3.525,1.7160000000000002 l-1.154,1.212 c-0.246156,0.2590176 -0.3354293000000004,0.6296823 -0.2341915,0.9723683999999994 s0.3776062000000002,0.6053315 0.7250000000000004,0.6890000000000007 c0.34739380000000036,0.08366860000000009 0.7130355,-0.024350800000000027 0.9591915000000004,-0.28336840000000035 l2.1,-2.2 c0.2204173000000003,-0.2312346 0.3170913,-0.5538624999999996 0.2601537,-0.8682052000000005 c-0.05693750000000003,-0.31434270000000036 -0.26063329999999996,-0.582564 -0.5481537,-0.7217948000000007 l-3.904,-1.9 l1.731,-3.971 c0.127367,-0.2924433 0.10757920000000006,-0.6281035 -0.05326620000000003,-0.9035561999999994 s-0.44344880000000036,-0.4576466 -0.7607338000000005,-0.4904438000000002 l-4.312,-0.4470000000000003 z" fill="#14133a" class=""/></g></g></svg>