<svg xmlns="http://www.w3.org/2000/svg" xmlns:xlink="http://www.w3.org/1999/xlink" version="1.1" style="" xml:space="preserve" width="512.001" height="512.001"><rect id="backgroundrect" width="100%" height="100%" x="0" y="0" fill="none" stroke="none"/>























<g class="currentLayer" style=""><title>Layer 1</title><path style="" d="M282.38266391563417,247.507 L282.38266391563417,247.507 c-1.598,-7.124 -3.962,-14.111 -7.095,-20.832 l-18.805,-40.327 l-1.852,4.862 L117.02966391563416,141.127 l-12.219,6.26 c-24.158,12.377 -42.743,33.431 -52.027,58.938 l-37.787,103.82 c-13.377,36.754 5.573,77.393 42.327,90.771 l108.232,39.393 c19.46,7.083 41.109,-1.858 49.899,-20.609 l38.184,-81.453 L282.38266391563417,247.507 z" id="svg_1" class="" fill-opacity="1" fill="#14133a"/><path style="" d="M478.82,271.94l-39.683-39.683l0.645,8.08l-0.722-2.878H292.629l-9.341,10.062  c-18.468,19.893-28.731,46.034-28.731,73.178v110.482c0,39.113,31.707,70.82,70.82,70.82h80.937c39.113,0,70.82-31.707,70.82-70.82  v-41.923l-0.842-3.359c14.649-10.029,24.266-26.873,24.266-45.967v-15.517C500.556,304.733,492.738,285.858,478.82,271.94z" id="svg_2" class="" fill-opacity="1" fill="#14133a"/><path style="" d="M238.558,185.054l-103.775-37.771c-9.341-3.4-14.157-13.728-10.757-23.069l19.887-54.639  l137.601,50.083l-19.887,54.639C258.227,183.638,247.898,188.454,238.558,185.054z" id="svg_3" class="" fill-opacity="1" fill="#14133a"/><path style="" d="M420.984,237.46H310.549c-9.94,0-17.999-8.058-17.999-17.999v-58.146h146.432v58.146  C438.982,229.402,430.924,237.46,420.984,237.46z" id="svg_4" class="" fill-opacity="1" fill="#14133a"/><path d="M485.814,264.869l-37.871-37.871c0.672-2.4,1.039-4.926,1.039-7.537v-58.146c0-5.523-4.478-10-10-10h-66.946L301.529,5.644  c-1.459-3.015-4.331-5.099-7.649-5.552c-3.319-0.452-6.645,0.786-8.857,3.3l-71.272,80.959l-66.417-24.174  c-2.491-0.907-5.241-0.788-7.646,0.334c-2.403,1.121-4.264,3.15-5.17,5.643l-19.887,54.638c-1.373,3.77-1.905,7.705-1.624,11.59  l-11.916,6.105c-26.489,13.572-46.684,36.449-56.863,64.417L6.441,306.725c-7.384,20.285-6.426,42.232,2.697,61.798  s25.319,34.406,45.605,41.789l108.232,39.394c5.711,2.079,11.547,3.071,17.28,3.071c18.86-0.001,36.608-10.733,45.093-28.833  l19.129-40.806v48.044c0,44.563,36.256,80.819,80.819,80.819h80.938c44.563,0,80.819-36.256,80.819-80.819v-41.024  c14.31-12.057,23.424-30.094,23.424-50.226v-15.517C510.478,301.922,501.719,280.774,485.814,264.869z M428.982,189.388h-55.794  c-5.522,0-10,4.477-10,10s4.478,10,10,10h55.794v10.074c0,4.411-3.588,7.999-7.998,7.999H310.549c-4.411,0-7.999-3.588-7.999-7.999  v-48.146h63.188c0.012,0,0.023,0.002,0.035,0.002c0.015,0,0.029-0.002,0.044-0.002h63.165L428.982,189.388L428.982,189.388z   M290.086,27.909l59.731,123.407h-57.266c-5.522,0-10,4.477-10,10v55.471l-15.076-32.332c1.464-2.049,2.665-4.306,3.549-6.737  l19.887-54.64c1.89-5.189-0.786-10.928-5.977-12.817l-51.003-18.564L290.086,27.909z M149.889,82.392l118.807,43.242l-16.467,45.243  c-0.73,2.007-2.199,3.61-4.135,4.513c-1.938,0.903-4.106,1-6.117,0.267l-103.774-37.771c-2.007-0.73-3.61-2.2-4.513-4.136  c-0.903-1.937-0.998-4.108-0.268-6.117l4.782-13.138l60.881,22.159c1.129,0.411,2.283,0.606,3.419,0.606  c4.085,0,7.92-2.522,9.397-6.583c1.89-5.19-0.786-10.928-5.977-12.817l-60.881-22.158L149.889,82.392z M207.24,415.455  c-6.639,14.162-22.729,20.802-37.424,15.457L61.584,391.519c-15.266-5.557-27.454-16.725-34.319-31.448s-7.587-31.239-2.03-46.506  l37.786-103.818c8.448-23.21,25.207-42.195,47.189-53.458l11.272-5.775c2.787,2.694,6.129,4.802,9.881,6.168l103.774,37.771  c3.125,1.137,6.363,1.704,9.593,1.704c1.959,0,3.914-0.213,5.839-0.628l16.495,35.375c2.09,4.482,3.822,9.151,5.17,13.932  c-17.938,21.211-27.756,47.94-27.756,75.866v15.319L207.24,415.455z M490.478,339.932c0,25.186-20.489,45.675-45.674,45.675h-16.32  c-13.882,0-25.175-11.293-25.175-25.175c0-13.881,11.293-25.174,25.175-25.174h17.994c5.522,0,10-4.478,10-10s-4.478-10-10-10  h-17.994c-24.909,0-45.175,20.265-45.175,45.174s20.266,45.175,45.175,45.175h16.32c7.808,0,15.298-1.376,22.25-3.887v29.462  c0,33.536-27.283,60.819-60.819,60.819h-80.938c-33.536,0-60.819-27.283-60.819-60.819V320.699c0-24.699,9.255-48.271,26.061-66.374  l8.627-9.294c3.481,1.556,7.331,2.428,11.383,2.428h110.435c5.454,0,10.545-1.573,14.854-4.282l35.834,35.833  c12.128,12.127,18.807,28.252,18.807,45.403L490.478,339.932L490.478,339.932z" id="svg_5"/><path d="M332.148,189.391c-2.63,0-5.21,1.06-7.07,2.93c-1.87,1.86-2.93,4.43-2.93,7.07c0,2.63,1.06,5.21,2.93,7.07  c1.86,1.86,4.44,2.93,7.07,2.93s5.2-1.07,7.07-2.93c1.859-1.86,2.93-4.44,2.93-7.07c0-2.64-1.07-5.21-2.93-7.07  C337.348,190.451,334.778,189.391,332.148,189.391z" id="svg_6"/><path d="M126.34,372.52l-0.294-0.106c-5.199-1.883-10.929,0.805-12.808,5.997c-1.881,5.193,0.805,10.928,5.997,12.808l0.294,0.106  c1.125,0.407,2.274,0.601,3.404,0.601c4.091,0,7.931-2.529,9.403-6.598C134.218,380.135,131.533,374.4,126.34,372.52z" id="svg_7"/><path d="M90.66,359.534l-15.396-5.604c-5.226-1.902-9.397-5.726-11.748-10.766c-2.35-5.04-2.597-10.693-0.694-15.919  c1.89-5.189-0.786-10.929-5.976-12.817c-5.189-1.89-10.929,0.786-12.817,5.976c-3.73,10.246-3.247,21.332,1.361,31.213  c4.607,9.882,12.787,17.378,23.034,21.106l15.396,5.604c1.129,0.411,2.283,0.606,3.419,0.606c4.085,0,7.92-2.522,9.397-6.583  C98.526,367.161,95.85,361.423,90.66,359.534z" id="svg_8"/><g id="svg_9">
</g><g id="svg_10">
</g><g id="svg_11">
</g><g id="svg_12">
</g><g id="svg_13">
</g><g id="svg_14">
</g><g id="svg_15">
</g><g id="svg_16">
</g><g id="svg_17">
</g><g id="svg_18">
</g><g id="svg_19">
</g><g id="svg_20">
</g><g id="svg_21">
</g><g id="svg_22">
</g><g id="svg_23">
</g></g></svg>