<svg xmlns="http://www.w3.org/2000/svg" xmlns:xlink="http://www.w3.org/1999/xlink" version="1.1" style="" xml:space="preserve" width="512" height="512"><rect id="backgroundrect" width="100%" height="100%" x="0" y="0" fill="none" stroke="none"/>

















<g class="currentLayer" style=""><title>Layer 1</title><g id="svg_2" class="selected" fill="#ffffff" fill-opacity="1">
	<path style="" d="M480,152l-24-24h-80v151.432c27.104-3.896,48-27.264,48-55.432v-24h16v24c0,39.696-32.304,72-72,72   c-4.416,0-8-3.584-8-8V160h-72c-8.84,0-16,7.16-16,16v32c0,8.84,7.16,16,16,16c-8.84,0-16,7.16-16,16v32c0,8.84,7.16,16,16,16   c-8.84,0-16,7.16-16,16v32c0,8.84,7.16,16,16,16c-8.84,0-16,7.16-16,16v32c0,8.84,7.16,16,16,16h80h144V152H480z" id="svg_3" fill="#ffffff" fill-opacity="1"/>
	<path style="" d="M32,152l24-24h80v151.432c-27.104-3.896-48-27.264-48-55.432v-24H72v24c0,39.696,32.304,72,72,72   c4.416,0,8-3.584,8-8V160h72c8.84,0,16,7.16,16,16v32c0,8.84-7.16,16-16,16c8.84,0,16,7.16,16,16v32c0,8.84-7.16,16-16,16   c8.84,0,16,7.16,16,16v32c0,8.84-7.16,16-16,16c8.84,0,16,7.16,16,16v32c0,8.84-7.16,16-16,16h-80H0V152H32z" id="svg_4" fill="#ffffff" fill-opacity="1"/>
</g><g id="svg_5">
</g><g id="svg_6">
</g><g id="svg_7">
</g><g id="svg_8">
</g><g id="svg_9">
</g><g id="svg_10">
</g><g id="svg_11">
</g><g id="svg_12">
</g><g id="svg_13">
</g><g id="svg_14">
</g><g id="svg_15">
</g><g id="svg_16">
</g><g id="svg_17">
</g><g id="svg_18">
</g><g id="svg_19">
</g></g></svg>