<svg xmlns="http://www.w3.org/2000/svg" xmlns:xlink="http://www.w3.org/1999/xlink" version="1.1" style="enable-background:new 0 0 512 512;" xml:space="preserve" width="512" height="512"><rect id="backgroundrect" width="100%" height="100%" x="0" y="0" fill="none" stroke="none"/>
















<g class="currentLayer" style=""><title>Layer 1</title><g id="svg_1" class="selected" fill="#ffffff" fill-opacity="1">
	<g id="svg_2" fill="#ffffff" fill-opacity="1">
		<g id="svg_3" fill="#ffffff" fill-opacity="1">
			<path d="M416,0H96c-5.896,0-10.667,4.771-10.667,10.667v490.667C85.333,507.229,90.104,512,96,512h320     c5.896,0,10.667-4.771,10.667-10.667V10.667C426.667,4.771,421.896,0,416,0z M362.667,490.667h-256v-320h90.823     c19.938,0,38.688-7.771,52.802-21.875l26.5-26.5c10.083-10.083,23.479-15.625,37.719-15.625h48.156V490.667z M405.333,490.667     H384V448h21.333V490.667z M405.333,426.667H384v-256h21.333V426.667z M405.333,149.333H384v-42.667h21.333V149.333z      M405.333,85.333H314.51c-19.938,0-38.688,7.771-52.802,21.875l-26.5,26.5c-10.083,10.083-23.479,15.625-37.719,15.625h-90.823     v-128h298.667V85.333z" id="svg_4" fill="#ffffff" fill-opacity="1"/>
			<path d="M170.667,128c23.531,0,42.667-19.146,42.667-42.667c0-23.521-19.135-42.667-42.667-42.667S128,61.813,128,85.333     C128,108.854,147.135,128,170.667,128z M170.667,64C182.427,64,192,73.563,192,85.333c0,11.771-9.573,21.333-21.333,21.333     c-11.76,0-21.333-9.563-21.333-21.333C149.333,73.563,158.906,64,170.667,64z" id="svg_5" fill="#ffffff" fill-opacity="1"/>
			<circle cx="245.33299255371094" cy="53.33300018310547" r="10.666999816894531" id="svg_6" fill="#ffffff" fill-opacity="1"/>
			<circle cx="288" cy="53.33300018310547" r="10.666999816894531" id="svg_7" fill="#ffffff" fill-opacity="1"/>
			<circle cx="330.6669921875" cy="53.33300018310547" r="10.666999816894531" id="svg_8" fill="#ffffff" fill-opacity="1"/>
			<path d="M146.208,280.458c-3.052-3.063-7.625-3.917-11.625-2.313c-3.99,1.646-6.583,5.542-6.583,9.854v42.667     c0,4.313,2.594,8.208,6.583,9.854c1.323,0.542,2.708,0.813,4.083,0.813c2.771,0,5.5-1.083,7.542-3.125l21.333-21.333     c4.167-4.167,4.167-10.917,0-15.083L146.208,280.458z" id="svg_9" fill="#ffffff" fill-opacity="1"/>
			<path d="M202.667,448c-5.896,0-10.667,4.771-10.667,10.667s4.771,10.667,10.667,10.667h106.667     c5.896,0,10.667-4.771,10.667-10.667S315.229,448,309.333,448H202.667z" id="svg_10" fill="#ffffff" fill-opacity="1"/>
		</g>
	</g>
</g><g id="svg_11">
</g><g id="svg_12">
</g><g id="svg_13">
</g><g id="svg_14">
</g><g id="svg_15">
</g><g id="svg_16">
</g><g id="svg_17">
</g><g id="svg_18">
</g><g id="svg_19">
</g><g id="svg_20">
</g><g id="svg_21">
</g><g id="svg_22">
</g><g id="svg_23">
</g><g id="svg_24">
</g><g id="svg_25">
</g></g></svg>